<svg width="169.000000" height="141.820557" viewBox="0 0 169 141.821" fill="none" xmlns="http://www.w3.org/2000/svg" xmlns:xlink="http://www.w3.org/1999/xlink">
	<desc>
			Created with Pixso.
	</desc>
	<defs/>
	<path id="减去顶层" d="M40.3613 0L128.639 0C140.659 0 146.669 0 151.45 1.84951C158.661 4.63907 164.361 10.3394 167.15 17.55C169 22.3306 169 28.3409 169 40.3612L169 60.6388C169 72.6591 169 78.6694 167.15 83.45C164.361 90.6606 158.661 96.3609 151.45 99.1505C146.669 101 140.659 101 128.639 101L40.3613 101C28.3408 101 22.3306 101 17.55 99.1505C10.3394 96.3609 4.63916 90.6606 1.84961 83.45C0 78.6693 0 72.6591 0 60.6388L0 40.3612C0 28.3409 0 22.3307 1.84961 17.55C4.63916 10.3394 10.3394 4.63907 17.55 1.84951C22.3306 0 28.3408 0 40.3613 0ZM50 41C45.0295 41 41 45.0294 41 50C41 54.9706 45.0295 59 50 59C54.9705 59 59 54.9706 59 50C59 45.0294 54.9705 41 50 41ZM73 50C73 45.0294 77.0295 41 82 41C86.9705 41 91 45.0294 91 50C91 54.9706 86.9705 59 82 59C77.0295 59 73 54.9706 73 50ZM115 41C110.03 41 106 45.0294 106 50C106 54.9706 110.03 59 115 59C119.97 59 124 54.9706 124 50C124 45.0294 119.97 41 115 41Z" clip-rule="evenodd" fill="#FFFFFF" fill-opacity="1.000000" fill-rule="evenodd"/>
	<path id="多边形 1" d="M57.74 126.65L80.39 103.27C82.35 101.24 81.65 97.88 79.05 96.79L56.96 87.63C54.36 86.55 51.48 88.43 51.43 91.26L50.87 123.8C50.81 127.42 55.22 129.25 57.74 126.65Z" fill="#FFFFFF" fill-opacity="1.000000" fill-rule="evenodd"/>
</svg>
