<svg width="62.000000" height="62.000000" viewBox="0 0 62 62" fill="none" xmlns="http://www.w3.org/2000/svg" xmlns:xlink="http://www.w3.org/1999/xlink">
	<desc>
			Created with Pixso.
	</desc>
	<defs/>
	<rect id="矩形 19" x="2.500000" y="2.500000" rx="4.000000" width="57.000000" height="57.000000" stroke="#474747" stroke-opacity="1.000000" stroke-width="5.000000"/>
	<path id="矢量 1" d="M4 56.81L14.53 33.79C15.26 32.18 17.57 32.25 18.21 33.89L25.03 51.36L28.05 59M25.03 51.36L31.69 40.61C32.5 39.31 34.42 39.36 35.15 40.72L45 59" stroke="#474747" stroke-opacity="1.000000" stroke-width="4.370000"/>
	<path id="椭圆 7" d="M43 27C46.86 27 50 23.86 50 20C50 16.13 46.86 13 43 13C39.13 13 36 16.13 36 20C36 23.86 39.13 27 43 27ZM46.1 17.39C46.7 18.09 47.06 19 47.06 20C47.05 20.92 46.74 21.84 46.1 22.6C45.51 23.31 44.68 23.82 43.7 23.99C42.79 24.15 41.82 24.01 40.97 23.51C40.17 23.05 39.52 22.32 39.18 21.38C38.86 20.52 38.84 19.54 39.18 18.61C39.5 17.74 40.11 16.98 40.97 16.48C41.76 16.02 42.72 15.82 43.7 16C44.61 16.16 45.47 16.62 46.1 17.39Z" fill="#474747" fill-opacity="1.000000" fill-rule="evenodd"/>
</svg>
