<svg width="69.518311" height="72.518417" viewBox="0 0 69.5183 72.5184" fill="none" xmlns="http://www.w3.org/2000/svg" xmlns:xlink="http://www.w3.org/1999/xlink">
	<desc>
			Created with Pixso.
	</desc>
	<defs/>
	<path id="椭圆 5" d="M26.99 54.22C41.89 54.35 54.09 42.35 54.22 27.45C54.35 12.55 42.35 0.35 27.45 0.22C12.55 0.1 0.35 12.1 0.22 26.99C0.1 41.89 12.1 54.1 26.99 54.22ZM40.65 16.14C43.17 19.19 44.67 23.11 44.63 27.37C44.6 31.32 43.23 35.29 40.46 38.52C37.9 41.53 34.3 43.69 30.1 44.39C26.2 45.05 22.06 44.39 18.39 42.22C14.98 40.22 12.23 37.05 10.81 33.04C9.49 29.31 9.42 25.12 10.91 21.13C12.29 17.42 14.94 14.17 18.64 12.07C22.08 10.12 26.2 9.32 30.39 10.1C34.28 10.82 37.94 12.86 40.65 16.14Z" fill="#6492E8" fill-opacity="1.000000" fill-rule="evenodd"/>
	<path id="直线 2" d="M43 46L65 68" stroke="#6492E8" stroke-opacity="1.000000" stroke-width="9.000000" stroke-linecap="round"/>
</svg>
