<svg width="303.987061" height="321.106934" viewBox="0 0 303.987 321.107" fill="none" xmlns="http://www.w3.org/2000/svg" xmlns:xlink="http://www.w3.org/1999/xlink">
	<desc>
			Created with Pixso.
	</desc>
	<defs/>
	<mask id="mask_94_117" fill="white">
		<path id="形状" d="M276.501 181.296L299.976 201.366C303.596 204.484 304.922 209.502 303.309 213.91L302.987 214.842C296.5 232.905 286.895 249.535 274.422 264.265L273.777 265.018C270.695 268.673 265.677 270 261.198 268.422L232.06 258.065C221.308 266.917 209.302 273.834 196.327 278.708L190.701 309.172C189.84 313.867 186.149 317.523 181.454 318.383L180.486 318.562C171.168 320.247 161.563 321.107 151.994 321.107C142.424 321.107 132.855 320.247 123.501 318.562L122.533 318.383C117.838 317.523 114.147 313.867 113.287 309.172L107.624 278.565C94.7573 273.727 82.8228 266.774 72.1423 257.993L42.7896 268.422C38.2737 270 33.292 268.637 30.2097 265.018L29.5647 264.265C17.0925 249.571 7.4873 232.905 1.00024 214.842L0.677734 213.91C-0.935059 209.394 0.391113 204.377 4.01099 201.294L27.7727 181.009C26.6616 174.307 26.124 167.426 26.124 160.544C26.124 153.699 26.6616 146.818 27.7727 140.08L4.01099 119.795C0.391113 116.677 -0.935059 111.659 0.677734 107.179L1.00024 106.247C7.4873 88.1838 17.0925 71.5542 29.5647 56.824L30.2097 56.0715C33.292 52.4158 38.3096 51.0896 42.7896 52.6667L72.1423 63.0959C82.8228 54.3152 94.7573 47.3982 107.624 42.5239L113.287 11.9167C114.147 7.22168 117.838 3.56616 122.533 2.70581L123.501 2.52661C142.173 -0.842285 161.814 -0.842285 180.486 2.52661L181.454 2.70581C186.149 3.56616 189.84 7.22168 190.701 11.9167L196.327 42.3806C209.302 47.2549 221.308 54.2078 232.06 63.0244L261.198 52.6667C265.713 51.0896 270.695 52.4517 273.777 56.0715L274.422 56.824C286.895 71.5183 296.5 88.1482 302.987 106.247L303.309 107.179C304.922 111.695 303.596 116.712 299.976 119.795L276.501 139.865C277.612 146.675 278.186 153.627 278.186 160.58C278.186 167.533 277.612 174.486 276.501 181.296ZM151.997 93.9614C117.16 93.9614 88.9187 122.203 88.9187 157.04C88.9187 191.876 117.16 220.118 151.997 220.118C186.833 220.118 215.075 191.876 215.075 157.04C215.075 122.203 186.833 93.9614 151.997 93.9614ZM151.997 197.18C162.713 197.18 172.784 192.987 180.382 185.425C187.944 177.826 192.137 167.755 192.137 157.039C192.137 146.323 187.944 136.252 180.382 128.654C172.784 121.056 162.713 116.899 151.997 116.899C141.28 116.899 131.209 121.056 123.611 128.654C116.049 136.252 111.856 146.323 111.856 157.039C111.856 167.755 116.049 177.826 123.611 185.425C131.209 192.987 141.28 197.18 151.997 197.18Z" clip-rule="evenodd" fill="" fill-opacity="1.000000" fill-rule="evenodd"/>
	</mask>
	<path id="形状" d="M276.501 181.296L299.976 201.366C303.596 204.484 304.922 209.502 303.309 213.91L302.987 214.842C296.5 232.905 286.895 249.535 274.422 264.265L273.777 265.018C270.695 268.673 265.677 270 261.198 268.422L232.06 258.065C221.308 266.917 209.302 273.834 196.327 278.708L190.701 309.172C189.84 313.867 186.149 317.523 181.454 318.383L180.486 318.562C171.168 320.247 161.563 321.107 151.994 321.107C142.424 321.107 132.855 320.247 123.501 318.562L122.533 318.383C117.838 317.523 114.147 313.867 113.287 309.172L107.624 278.565C94.7573 273.727 82.8228 266.774 72.1423 257.993L42.7896 268.422C38.2737 270 33.292 268.637 30.2097 265.018L29.5647 264.265C17.0925 249.571 7.4873 232.905 1.00024 214.842L0.677734 213.91C-0.935059 209.394 0.391113 204.377 4.01099 201.294L27.7727 181.009C26.6616 174.307 26.124 167.426 26.124 160.544C26.124 153.699 26.6616 146.818 27.7727 140.08L4.01099 119.795C0.391113 116.677 -0.935059 111.659 0.677734 107.179L1.00024 106.247C7.4873 88.1838 17.0925 71.5542 29.5647 56.824L30.2097 56.0715C33.292 52.4158 38.3096 51.0896 42.7896 52.6667L72.1423 63.0959C82.8228 54.3152 94.7573 47.3982 107.624 42.5239L113.287 11.9167C114.147 7.22168 117.838 3.56616 122.533 2.70581L123.501 2.52661C142.173 -0.842285 161.814 -0.842285 180.486 2.52661L181.454 2.70581C186.149 3.56616 189.84 7.22168 190.701 11.9167L196.327 42.3806C209.302 47.2549 221.308 54.2078 232.06 63.0244L261.198 52.6667C265.713 51.0896 270.695 52.4517 273.777 56.0715L274.422 56.824C286.895 71.5183 296.5 88.1482 302.987 106.247L303.309 107.179C304.922 111.695 303.596 116.712 299.976 119.795L276.501 139.865C277.612 146.675 278.186 153.627 278.186 160.58C278.186 167.533 277.612 174.486 276.501 181.296ZM151.997 93.9614C117.16 93.9614 88.9187 122.203 88.9187 157.04C88.9187 191.876 117.16 220.118 151.997 220.118C186.833 220.118 215.075 191.876 215.075 157.04C215.075 122.203 186.833 93.9614 151.997 93.9614ZM151.997 197.18C162.713 197.18 172.784 192.987 180.382 185.425C187.944 177.826 192.137 167.755 192.137 157.039C192.137 146.323 187.944 136.252 180.382 128.654C172.784 121.056 162.713 116.899 151.997 116.899C141.28 116.899 131.209 121.056 123.611 128.654C116.049 136.252 111.856 146.323 111.856 157.039C111.856 167.755 116.049 177.826 123.611 185.425C131.209 192.987 141.28 197.18 151.997 197.18Z" clip-rule="evenodd" fill="#FFFFFF" fill-opacity="1.000000" fill-rule="evenodd" mask="url(#mask_94_117)"/>
	<path id="形状" d="" fill="#979797" fill-opacity="0.000000" fill-rule="nonzero"/>
</svg>
