<svg width="76.000000" height="76.000000" viewBox="0 0 76 76" fill="none" xmlns="http://www.w3.org/2000/svg" xmlns:xlink="http://www.w3.org/1999/xlink">
	<desc>
			Created with Pixso.
	</desc>
	<defs/>
	<rect id="画板 3" width="76.000000" height="76.000000" fill="#FFFFFF" fill-opacity="0"/>
	<path id="矩形 4" d="M0 35.5C0 32.46 2.46 30 5.5 30C8.53 30 11 32.46 11 35.5L11 69L7 69C3.13 69 0 65.86 0 62L0 35.5Z" fill="#FFFFFF" fill-opacity="1.000000" fill-rule="evenodd"/>
	<rect id="矩形 5" x="6.000000" y="69.000000" rx="5.500000" width="11.000000" height="70.000000" transform="rotate(-90 6.000000 69.000000)" fill="#FFFFFF" fill-opacity="1.000000"/>
	<path id="矩形 6" d="M65 35.5C65 32.46 67.46 30 70.5 30C73.53 30 76 32.46 76 35.5L76 62C76 65.86 72.86 69 69 69L65 69L65 35.5Z" fill="#FFFFFF" fill-opacity="1.000000" fill-rule="evenodd"/>
	<path id="矩形 7" d="M32 11L43 11L43 48.5C43 51.53 40.53 54 37.5 54C34.46 54 32 51.53 32 48.5L32 11Z" fill="#FFFFFF" fill-opacity="1.000000" fill-rule="evenodd"/>
	<path id="矢量 1" d="M55 26L38.23 7.79C37.83 7.36 37.16 7.36 36.76 7.79L20 26" stroke="#FFFFFF" stroke-opacity="1.000000" stroke-width="11.000000" stroke-linecap="round"/>
</svg>
